<svg xmlns="http://www.w3.org/2000/svg" xmlns:xlink="http://www.w3.org/1999/xlink" width="60" height="23pt" viewBox="0 0 45 23"><symbol id="a" overflow="visible"><path d="m1.0312 21.703c.3281-.0156.5-.2344.5-.4844 0-.3281-.25-.5-.4844-.5s-.4844.1563-.4844.5c0 .5156.5.9375 1.1094.9375 1.5156 0 2.0781-2.3438 2.7812-5.2344.7656-3.1406 1.4219-6.3281 1.9531-9.5312.375-2.1094.7344-4.1094 1.0781-5.3906.125-.5.4531-1.7812.8438-1.7812.3125 0 .5625.1875.6094.2344-.3281.0156-.5.2344-.5.4844 0 .3281.25.4844.4688.4844.25 0 .5-.1406.5-.5 0-.5313-.5469-.9219-1.0938-.9219-.75 0-1.3125 1.0938-1.8594 3.125-.0313.1094-1.3906 5.1094-2.4844 11.625-.2656 1.5312-.5469 3.1875-.875 4.5781-.1875.7344-.6406 2.6094-1.4531 2.6094-.3594 0-.5938-.2344-.6094-.2344z"/></symbol><symbol id="b" overflow="visible"><path d="m3.6562-3.9844h.8594c.2031 0 .2969 0 .2969-.2031 0-.1094-.0938-.1094-.2656-.1094h-.8281l.2031-1.1406c.0469-.2031.1875-.9063.25-1.0312.0781-.1875.25-.3438.4688-.3438.0313 0 .2969 0 .4844.1875-.4375.0313-.5469.3906-.5469.5313 0 .2344.1875.3594.375.3594.2656 0 .5469-.2344.5469-.6094 0-.4531-.4531-.6875-.8594-.6875-.3438 0-.9688.1875-1.2656 1.1719-.0625.2031-.0938.3125-.3281 1.5625h-.6875c-.2031 0-.3125 0-.3125.1875 0 .125.0938.125.2813.125h.6563l-.7344 3.9375c-.1875.9688-.3594 1.875-.875 1.875-.0469 0-.2813 0-.4844-.1875.4688-.0313.5625-.3906.5625-.5313 0-.2344-.1875-.3594-.375-.3594-.2656 0-.5469.2344-.5469.6094 0 .4375.4375.6875.8438.6875.5469 0 .9531-.5938 1.125-.9688.3281-.625.5469-1.8281.5625-1.9062z"/></symbol><symbol id="c" overflow="visible"><path d="m3.3281-3.0156c.0625-.25.2969-1.1719.9844-1.1719.0469 0 .2969 0 .5.125-.2813.0625-.4688.2969-.4688.5469 0 .1563.1094.3438.375.3438.2188 0 .5313-.1719.5313-.5781 0-.5156-.5781-.6563-.9219-.6563-.5781 0-.9219.5313-1.0469.75-.25-.6563-.7813-.75-1.0781-.75-1.0312 0-1.6094 1.2812-1.6094 1.5312 0 .1094.1094.1094.125.1094.0781 0 .1094-.0313.125-.1094.3438-1.0625 1-1.3125 1.3438-1.3125.1875 0 .5313.0938.5313.6719 0 .3125-.1719.9688-.5313 2.375-.1563.6094-.5156 1.0312-.9531 1.0312-.0625 0-.2813 0-.5-.125.25-.0625.4688-.2656.4688-.5469 0-.2656-.2188-.3438-.3594-.3438-.3125 0-.5469.25-.5469.5781 0 .4531.4844.6563.9219.6563.6719 0 1.0312-.7031 1.0469-.75.125.3594.4844.75 1.0781.75 1.0312 0 1.5938-1.2812 1.5938-1.5312 0-.1094-.0781-.1094-.1094-.1094-.0938 0-.1094.0469-.1406.1094-.3281 1.0781-1 1.3125-1.3125 1.3125-.3906 0-.5469-.3125-.5469-.6563 0-.2188.0469-.4375.1563-.875z"/></symbol><symbol id="d" overflow="visible"><path d="m5.1406-6.8125s0-.1094-.125-.1094c-.1563 0-1.0938.0938-1.2656.1094-.0781.0156-.1406.0625-.1406.1875s.0938.125.2344.125c.4844 0 .5.0625.5.1719l-.0313.2031-.5938 2.3594c-.1875-.375-.4688-.6406-.9219-.6406-1.1562 0-2.3906 1.4688-2.3906 2.9219 0 .9375.5469 1.5938 1.3125 1.5938.2031 0 .7031-.0469 1.2969-.75.0781.4219.4375.75.9063.75.3594 0 .5781-.2344.75-.5469.1563-.3594.2969-.9688.2969-.9844 0-.1094-.0938-.1094-.125-.1094-.0938 0-.1094.0469-.1406.1875-.1719.6406-.3438 1.2344-.75 1.2344-.2813 0-.2969-.2656-.2969-.4531 0-.25.0156-.3125.0469-.4844zm-2.0625 5.625c-.0625.1875-.0625.2031-.2031.375-.4375.5469-.8438.7031-1.125.7031-.5 0-.6406-.5469-.6406-.9375 0-.5.3125-1.7188.5469-2.1875.3125-.5781.75-.9531 1.1562-.9531.6406 0 .7813.8125.7813.875s-.0156.125-.0313.1719z"/></symbol><symbol id="e" overflow="visible"><path d="m1.9062-.5313c0-.2813-.2344-.5313-.5156-.5313-.2969 0-.5313.25-.5313.5313 0 .2969.2344.5313.5313.5313.2813 0 .5156-.2344.5156-.5313z"/></symbol><symbol id="f" overflow="visible"><path d="m3.2969 2.3906c0-.0313 0-.0469-.1719-.2188-1.2344-1.25-1.5625-3.1406-1.5625-4.6719 0-1.7344.375-3.4688 1.6094-4.7031.125-.125.125-.1406.125-.1719 0-.0781-.0313-.1094-.0938-.1094-.1094 0-1 .6875-1.5938 1.9531-.5 1.0938-.625 2.2031-.625 3.0312 0 .7813.1094 1.9844.6563 3.125.6094 1.2188 1.4531 1.875 1.5625 1.875.0625 0 .0938-.0313.0938-.1094z"/></symbol><symbol id="g" overflow="visible"><path d="m2.875-2.5c0-.7656-.1094-1.9688-.6563-3.1094-.5938-1.2188-1.4531-1.875-1.5469-1.875-.0625 0-.1094.0469-.1094.1094 0 .0313 0 .0469.1875.2344.9844.9844 1.5469 2.5625 1.5469 4.6406 0 1.7188-.3594 3.4688-1.5938 4.7188-.1406.125-.1406.1406-.1406.1719 0 .0625.0469.1094.1094.1094.0938 0 1-.6875 1.5781-1.9531.5156-1.0938.625-2.2031.625-3.0469z"/></symbol><g id="layer1" style="display:inline"><rect style="color:#000;fill:#ffff80;fill-opacity:1;stroke:none;stroke-width:2;marker:none;visibility:visible;display:inline;overflow:visible;enable-background:accumulate" id="rect3041" width="13" height="12.816" x="29.832" y="5.234"/></g><g transform="matrix(.84574 0 0 .84574 3.5 1.48)"><use width="45" height="23" x="-.54" y=".76" xlink:href="#a"/><use width="45" height="23" x="11.08" y="14.32" xlink:href="#b"/><use width="45" height="23" x="17.03" y="14.32" xlink:href="#f"/><use width="45" height="23" x="20.9" y="14.32" xlink:href="#c"/><use width="45" height="23" x="26.6" y="14.32" xlink:href="#g"/><use width="45" height="23" x="32.13" y="14.32" xlink:href="#d"/><use width="45" height="23" x="37.31" y="14.32" xlink:href="#c"/></g></svg>